<svg id="vector" xmlns="http://www.w3.org/2000/svg" width="302" height="395" viewBox="0 0 302 395"><path fill="#FFFF" d="M113,17.6c-6.3,2.7 -9.9,7.5 -10.9,14.7 -0.6,3.8 -0.7,3.9 -9.2,7.1 -16,6 -30.9,16.8 -41.5,30 -10.9,13.6 -17.9,29.6 -20.5,46.6l-1.3,8.1 -4,1.8c-5.2,2.3 -10.4,7.4 -12.7,12.6 -2.2,4.7 -2.6,19.5 -0.7,25.7 2.3,7.8 13.1,16.8 20.1,16.8 2.3,-0 2.6,0.5 3.2,4.2 0.3,2.4 3.7,39.8 7.5,83.3 3.9,43.4 7.4,81.7 8,84.9 2.9,17.6 16.4,31.8 33.8,35.5 7.4,1.5 127,1.5 134.4,-0 17.1,-3.7 31,-18.1 33.8,-35.4 0.5,-3.3 4.1,-41.6 8,-85 3.8,-43.5 7.2,-80.9 7.5,-83.3 0.6,-3.7 0.9,-4.2 3.2,-4.2 7,-0 17.8,-9 20.1,-16.8 1.7,-5.6 1.5,-20.5 -0.2,-24.7 -2.5,-6 -6.6,-10.3 -12.1,-13 -5.3,-2.6 -5.3,-2.7 -6,-8.3 -1.2,-9.4 -4.2,-19.8 -8.4,-28.8 -11.8,-25.1 -32.5,-42.9 -61.3,-52.7 -1.2,-0.4 -1.8,-1.7 -1.8,-3.7 0,-3.5 -2.9,-9.7 -5.7,-12.2 -5,-4.6 -7.3,-4.8 -44.5,-4.8 -29.2,0.1 -35.9,0.3 -38.8,1.6zM186.8,31.2c1.6,1.6 1.6,16 0,17.6 -1.7,1.7 -67.9,1.7 -69.6,-0 -1.6,-1.6 -1.6,-16 0,-17.6 1.7,-1.7 67.9,-1.7 69.6,-0zM103.5,52.9c1,3.3 4.6,7.1 8.6,9.1 3.6,1.9 5.9,2 40.1,2 35.8,-0 36.4,-0.1 40.3,-2.3 3.5,-2 7.7,-6.7 8.8,-10 0.3,-0.9 2.1,-0.5 6.3,1.2 19.8,8.2 34.5,21.8 43.9,40.6 3.9,7.9 8.5,22.7 8.5,27.7 0,1.7 -5.8,1.8 -108,1.8 -102.2,-0 -108,-0.1 -108,-1.8 0,-5 4.6,-19.8 8.5,-27.7 9.3,-18.5 23.2,-31.5 43,-40.2 6.2,-2.7 7.2,-2.8 8,-0.4zM272.5,138.4c4.7,2 6.5,6 6.5,14.7 0,6.7 -0.2,7.3 -3.4,10.5l-3.4,3.4 -119.6,-0c-83.8,-0 -120.2,-0.3 -121.9,-1.1 -4,-1.8 -5.7,-5.9 -5.7,-13.8 0,-8.2 1.6,-11.6 6.5,-13.7 4.6,-2 236.1,-2 241,-0zM254.3,181.7c0.2,0.5 -0.2,7.5 -1,15.8 -0.7,8.2 -4.2,46.9 -7.7,85.8 -6.2,68.1 -6.5,71 -9.1,76.2 -3.2,6.6 -9,11.8 -16.2,14.5 -5.2,1.9 -7.7,2 -68.3,2 -60.6,-0 -63.1,-0.1 -68.3,-2 -7.2,-2.7 -13,-7.9 -16.2,-14.5 -2.6,-5.2 -2.9,-8 -9.1,-76.2 -3.5,-38.9 -7,-77.6 -7.7,-85.8 -0.8,-8.3 -1.2,-15.3 -1,-15.8 0.5,-0.9 204.1,-0.9 204.6,-0z" stroke="#00000000" id="path_0"/></svg>