<svg id="vector" xmlns="http://www.w3.org/2000/svg" width="350" height="499" viewBox="0 0 350 499"><path fill="#FFFF" d="M98,11.7c-0.8,0.3 -2.6,1.5 -3.8,2.7 -4.9,4.3 -5.2,6.2 -5.2,27.8 0,18.5 0.2,20.6 2,23.6 2.2,3.5 7.4,7.2 10.4,7.2 1.7,-0 1.8,0.7 1.4,7.8 -0.3,5.2 -1.1,8.9 -2.4,11.1 -1.1,1.8 -19.4,17.6 -41.6,35.8 -33.7,27.7 -40,33.3 -42.5,37.7l-2.8,5.1 0,149.5 0,149.5 2.2,4.7c3,6.6 10.5,14.3 17.2,17.5l5.6,2.8 140.5,-0 140.5,-0 5.6,-2.8c6.7,-3.2 14.2,-10.9 17.2,-17.5l2.2,-4.7 0.3,-144c0.3,-161.6 0.8,-149.8 -7.2,-157.9 -2.3,-2.4 -27.5,-19.2 -58.6,-39.1 -30,-19.1 -55.6,-35.7 -56.8,-36.9 -3.5,-3.1 -5.1,-6.7 -5.8,-12.9l-0.7,-5.6 3.6,-1.5c2,-0.8 4.6,-3 5.7,-4.8 1.8,-3 2,-5 2,-24.6 0,-23.6 -0.4,-25.7 -6.3,-29.2 -3.1,-1.9 -5.4,-2 -62.2,-1.9 -32.4,-0 -59.7,0.3 -60.5,0.6zM214,42l0,17 -55.5,-0 -55.5,-0 0,-17 0,-17 55.5,-0 55.5,-0 0,17zM203.1,80.5c0.7,8 2.5,13 6.9,18.5 2.2,2.8 19.1,14.1 60.2,40.2 39.8,25.3 57.6,37.2 58.9,39.3 1.8,2.9 1.9,7.9 1.9,145.1l0,142.1 -2.3,4.4c-1.3,2.4 -4.3,5.7 -6.6,7.4l-4.3,3 -138.8,-0 -138.8,-0 -4.3,-3c-2.3,-1.7 -5.3,-5 -6.6,-7.4l-2.3,-4.4 0,-145.3c0,-111.1 0.3,-145.9 1.2,-147.9 0.7,-1.5 12.5,-12 26.3,-23.3 45.9,-37.9 53.3,-44.1 55.5,-47.1 4.2,-5.9 6.2,-12.3 6.8,-20.8l0.5,-8.3 42.6,0.2 42.6,0.3 0.6,7z" stroke="#00000000" id="path_0"/><path fill="#FFFF" d="M241,239.9l0,82.1 31.5,-0 31.5,-0 -0.2,-64.2 -0.3,-64.2 -26,-14.9c-14.3,-8.2 -28.4,-16.2 -31.2,-17.8l-5.3,-3 0,82zM278,195l11.5,6.6 0.3,53.2 0.2,53.2 -17.5,-0 -17.5,-0 0,-63.1 0,-63 5.8,3.2c3.1,1.8 10.9,6.3 17.2,9.9z" stroke="#00000000" id="path_1"/></svg>