<svg id="vector" xmlns="http://www.w3.org/2000/svg" width="102" height="172" viewBox="0 0 102 172"><path fill="#FFFF" d="M28.5,4.4c-2.1,1.5 -3.2,8.7 -2.7,16.8l0.3,4.8 4.5,-0 4.4,-0 0,5.4 0,5.5 -6,3.2c-8.2,4.4 -16.2,13.1 -20.8,22.6l-3.7,7.8 0,50 0,50 48.2,0.3 48.3,0.2 0.5,-2.3c0.4,-1.3 0.5,-23.2 0.3,-48.8l-0.3,-46.4 -2.7,-6.9c-4.9,-12.6 -14.1,-22.9 -25.6,-28.4 -3.2,-1.5 -3.3,-1.8 -3,-6.7l0.3,-5 5,-0.5 5,-0.5 0.3,-7c0.4,-8.3 -0.2,-10.9 -2.8,-13.5 -1.9,-1.9 -3.4,-2 -24.8,-2 -17.7,-0 -23.2,0.3 -24.7,1.4zM74.8,9.7c0.5,1 1,3.9 1.1,6.5l0.2,4.8 -22.6,-0 -22.5,-0 0,-5.8c0,-3.2 0.3,-6.2 0.7,-6.5 0.3,-0.4 10,-0.7 21.4,-0.7 18.8,-0 20.9,0.2 21.7,1.7zM65,33.2l0,7.3 5.9,2.7c8.9,4.2 16.4,11.6 20.8,20.5 3.1,6.3 3.7,8.7 4.1,15.9l0.5,8.4 -43.7,-0 -43.6,-0 0,-5.9c0,-16.4 11.1,-33 26.3,-39.4l4.7,-2 0,-6.7c0,-3.7 0.3,-7 0.7,-7.3 0.3,-0.4 6,-0.7 12.5,-0.7l11.8,-0 0,7.2zM96,111l0,18 -43.5,-0 -43.5,-0 0,-18 0,-18 43.5,-0 43.5,-0 0,18zM96,150l0,16 -43.5,-0 -43.5,-0 0,-15.3c0,-8.5 0.3,-15.7 0.7,-16 0.3,-0.4 19.9,-0.7 43.5,-0.7l42.8,-0 0,16z" stroke="#00000000" id="path_0"/></svg>